G04 DipTrace 2.4.0.2*
%INcleduino_V1_finial_TopSilk.gbr*%
%MOIN*%
%ADD10C,0.0098*%
%ADD11C,0.006*%
%ADD14C,0.008*%
%ADD16C,0.0158*%
%FSLAX44Y44*%
G04*
G70*
G90*
G75*
G01*
%LNTopSilk*%
%LPD*%
X8390Y9490D2*
D10*
X7890D1*
X6397Y6571D2*
X6083D1*
X10197Y6621D2*
X9883D1*
X9697D2*
X9383D1*
X6897Y6571D2*
X6583D1*
X7690Y9490D2*
X7190D1*
X7340Y7640D2*
D14*
Y7240D1*
X7740Y8040D2*
X8540D1*
X8940Y7640D2*
Y7240D1*
X7740Y6840D2*
X8540D1*
X8040Y7640D2*
X8240D1*
X8040Y7240D2*
X8240D1*
Y7640D2*
G02X8240Y7240I0J-200D01*
G01*
X8040Y7640D2*
G03X8040Y7240I0J-200D01*
G01*
X10990Y7090D2*
Y6890D1*
X11190Y4990D2*
X10990Y5190D1*
X11190Y7290D2*
X10990Y7090D1*
X4140Y12140D2*
X12140D1*
Y4140D1*
X4140D1*
Y12140D1*
X12140D1*
Y4140D1*
X4140D1*
Y12140D1*
X10990Y5190D2*
Y5390D1*
X5090Y4990D2*
X5290Y5190D1*
Y5390D1*
X5090Y7290D2*
X5290Y7090D1*
Y6890D1*
D16*
X8652Y10098D3*
X9636Y11094D2*
D10*
Y11188D1*
X6644Y11094D2*
Y11188D1*
X11011Y11988D2*
D11*
Y11885D1*
X11025Y11851D1*
X11040Y11839D1*
X11068Y11828D1*
X11097D1*
X11126Y11839D1*
X11140Y11851D1*
X11154Y11885D1*
Y11988D1*
X10853D1*
X11011Y11908D2*
X10853Y11828D1*
Y11548D2*
X11154Y11640D1*
X10853Y11732D1*
X10953Y11697D2*
Y11582D1*
X11154Y11452D2*
X10853Y11394D1*
X11154Y11337D1*
X10853Y11280D1*
X11154Y11222D1*
X11155Y10707D2*
Y10822D1*
X11026Y10833D1*
X11040Y10822D1*
X11055Y10787D1*
Y10753D1*
X11040Y10719D1*
X11012Y10696D1*
X10968Y10684D1*
X10940D1*
X10897Y10696D1*
X10868Y10719D1*
X10854Y10753D1*
Y10787D1*
X10868Y10822D1*
X10883Y10833D1*
X10911Y10845D1*
X11155Y10588D2*
X10854Y10496D1*
X11155Y10405D1*
X10057Y6347D2*
Y6244D1*
X10072Y6209D1*
X10086Y6197D1*
X10115Y6186D1*
X10144D1*
X10172Y6197D1*
X10187Y6209D1*
X10201Y6244D1*
Y6347D1*
X9900D1*
X10057Y6266D2*
X9900Y6186D1*
X10201Y6090D2*
X9900Y5929D1*
X10201D2*
X9900Y6090D1*
X9701Y6269D2*
X9400D1*
X9701Y6349D2*
Y6189D1*
Y6093D2*
X9400Y5932D1*
X9701D2*
X9400Y6093D1*
X6837Y6250D2*
X6851Y6226D1*
X6894Y6192D1*
X6593D1*
X6894Y6073D2*
Y5947D1*
X6779Y6016D1*
Y5981D1*
X6765Y5958D1*
X6751Y5947D1*
X6708Y5935D1*
X6679D1*
X6636Y5947D1*
X6607Y5970D1*
X6593Y6004D1*
Y6039D1*
X6607Y6073D1*
X6622Y6084D1*
X6650Y6096D1*
X6239Y6346D2*
Y6268D1*
X6254Y6242D1*
X6268Y6233D1*
X6297Y6225D1*
X6340D1*
X6368Y6233D1*
X6383Y6242D1*
X6397Y6268D1*
Y6346D1*
X6096D1*
X6397Y6153D2*
X6096Y6110D1*
X6397Y6067D1*
X6096Y6024D1*
X6397Y5981D1*
X6254Y5909D2*
Y5831D1*
X6268Y5805D1*
X6282Y5797D1*
X6311Y5788D1*
X6340D1*
X6368Y5797D1*
X6383Y5805D1*
X6397Y5831D1*
Y5909D1*
X6096D1*
X6254Y5848D2*
X6096Y5788D1*
X11155Y9966D2*
Y9840D1*
X11040Y9909D1*
Y9875D1*
X11026Y9852D1*
X11012Y9840D1*
X10969Y9829D1*
X10940D1*
X10897Y9840D1*
X10868Y9863D1*
X10854Y9898D1*
Y9932D1*
X10868Y9966D1*
X10883Y9978D1*
X10911Y9989D1*
X11156Y9733D2*
X10854Y9641D1*
X11156Y9549D1*
X11155Y9430D2*
Y9304D1*
X11040Y9373D1*
Y9338D1*
X11026Y9315D1*
X11012Y9304D1*
X10969Y9292D1*
X10940D1*
X10897Y9304D1*
X10868Y9327D1*
X10854Y9361D1*
Y9396D1*
X10868Y9430D1*
X10883Y9441D1*
X10911Y9453D1*
X11084Y8812D2*
X11113Y8823D1*
X11142Y8846D1*
X11156Y8869D1*
Y8915D1*
X11142Y8938D1*
X11113Y8961D1*
X11084Y8972D1*
X11041Y8984D1*
X10969D1*
X10927Y8972D1*
X10898Y8961D1*
X10869Y8938D1*
X10855Y8915D1*
Y8869D1*
X10869Y8846D1*
X10898Y8823D1*
X10927Y8812D1*
X10969D1*
Y8869D1*
X11156Y8555D2*
X10855D1*
X11156Y8716D1*
X10855D1*
X11156Y8459D2*
X10855D1*
Y8378D1*
X10869Y8344D1*
X10898Y8321D1*
X10927Y8309D1*
X10969Y8298D1*
X11041D1*
X11084Y8309D1*
X11113Y8321D1*
X11142Y8344D1*
X11156Y8378D1*
Y8459D1*
X10853Y6561D2*
X11154Y6653D1*
X10853Y6745D1*
X10953Y6710D2*
Y6596D1*
X11154Y6396D2*
X11140Y6431D1*
X11096Y6454D1*
X11025Y6465D1*
X10982D1*
X10910Y6454D1*
X10867Y6431D1*
X10853Y6396D1*
Y6373D1*
X10867Y6339D1*
X10910Y6316D1*
X10982Y6304D1*
X11025D1*
X11096Y6316D1*
X11140Y6339D1*
X11154Y6373D1*
Y6396D1*
X11096Y6316D2*
X10910Y6454D1*
X11003Y6208D2*
Y6076D1*
X10853Y5796D2*
X11154Y5888D1*
X10853Y5980D1*
X10953Y5945D2*
Y5830D1*
X11154Y5677D2*
Y5551D1*
X11039Y5619D1*
Y5585D1*
X11025Y5562D1*
X11011Y5551D1*
X10967Y5539D1*
X10939D1*
X10896Y5551D1*
X10867Y5574D1*
X10853Y5608D1*
Y5642D1*
X10867Y5677D1*
X10882Y5688D1*
X10910Y5700D1*
X10514Y5385D2*
Y5084D1*
X10605Y5385D1*
X10697Y5084D1*
Y5385D1*
X10418Y5084D2*
Y5385D1*
X10322Y5235D2*
X10189D1*
X10093Y5084D2*
X10001Y5385D1*
X9909Y5084D1*
X9641Y5155D2*
X9653Y5127D1*
X9676Y5098D1*
X9698Y5084D1*
X9744D1*
X9767Y5098D1*
X9790Y5127D1*
X9802Y5155D1*
X9813Y5198D1*
Y5270D1*
X9802Y5313D1*
X9790Y5342D1*
X9767Y5371D1*
X9744Y5385D1*
X9698D1*
X9676Y5371D1*
X9653Y5342D1*
X9641Y5313D1*
X9373Y5155D2*
X9384Y5127D1*
X9407Y5098D1*
X9430Y5084D1*
X9476D1*
X9499Y5098D1*
X9522Y5127D1*
X9534Y5155D1*
X9545Y5198D1*
Y5270D1*
X9534Y5313D1*
X9522Y5342D1*
X9499Y5371D1*
X9476Y5385D1*
X9430D1*
X9407Y5371D1*
X9384Y5342D1*
X9373Y5313D1*
X9277Y5235D2*
X9144D1*
X8888Y5127D2*
X8910Y5098D1*
X8945Y5084D1*
X8991D1*
X9025Y5098D1*
X9048Y5127D1*
Y5155D1*
X9037Y5184D1*
X9025Y5198D1*
X9002Y5213D1*
X8933Y5242D1*
X8910Y5256D1*
X8899Y5270D1*
X8888Y5299D1*
Y5342D1*
X8910Y5371D1*
X8945Y5385D1*
X8991D1*
X9025Y5371D1*
X9048Y5342D1*
X8619Y5155D2*
X8631Y5127D1*
X8654Y5098D1*
X8677Y5084D1*
X8723D1*
X8746Y5098D1*
X8768Y5127D1*
X8780Y5155D1*
X8792Y5198D1*
Y5270D1*
X8780Y5313D1*
X8768Y5342D1*
X8746Y5371D1*
X8723Y5385D1*
X8677D1*
X8654Y5371D1*
X8631Y5342D1*
X8619Y5313D1*
X8523Y5084D2*
Y5385D1*
X8363Y5084D2*
X8523Y5285D1*
X8466Y5213D2*
X8363Y5385D1*
X8267Y5235D2*
X8134D1*
X7854Y5385D2*
Y5084D1*
X7946Y5385D1*
X8038Y5084D1*
Y5385D1*
X7689Y5084D2*
X7712Y5098D1*
X7735Y5127D1*
X7747Y5155D1*
X7758Y5198D1*
Y5270D1*
X7747Y5313D1*
X7735Y5342D1*
X7712Y5371D1*
X7689Y5385D1*
X7643D1*
X7621Y5371D1*
X7598Y5342D1*
X7586Y5313D1*
X7575Y5270D1*
Y5198D1*
X7586Y5155D1*
X7598Y5127D1*
X7621Y5098D1*
X7643Y5084D1*
X7689D1*
X7479Y5235D2*
X7346D1*
X7250Y5227D2*
X7147D1*
X7112Y5213D1*
X7101Y5198D1*
X7089Y5170D1*
Y5141D1*
X7101Y5113D1*
X7112Y5098D1*
X7147Y5084D1*
X7250D1*
Y5385D1*
X7170Y5227D2*
X7089Y5385D1*
X6833Y5127D2*
X6855Y5098D1*
X6890Y5084D1*
X6936D1*
X6970Y5098D1*
X6993Y5127D1*
Y5155D1*
X6982Y5184D1*
X6970Y5198D1*
X6947Y5213D1*
X6878Y5242D1*
X6855Y5256D1*
X6844Y5270D1*
X6833Y5299D1*
Y5342D1*
X6855Y5371D1*
X6890Y5385D1*
X6936D1*
X6970Y5371D1*
X6993Y5342D1*
X6656Y5084D2*
Y5385D1*
X6737Y5084D2*
X6576D1*
X6480Y5235D2*
X6347D1*
X6079Y5155D2*
X6090Y5127D1*
X6113Y5098D1*
X6136Y5084D1*
X6182D1*
X6205Y5098D1*
X6228Y5127D1*
X6240Y5155D1*
X6251Y5198D1*
Y5270D1*
X6240Y5313D1*
X6228Y5342D1*
X6205Y5371D1*
X6182Y5385D1*
X6136D1*
X6113Y5371D1*
X6090Y5342D1*
X6079Y5313D1*
Y5270D1*
X6136D1*
X5822Y5084D2*
Y5385D1*
X5983Y5084D1*
Y5385D1*
X5726Y5084D2*
Y5385D1*
X5646D1*
X5611Y5371D1*
X5588Y5342D1*
X5577Y5313D1*
X5565Y5270D1*
Y5198D1*
X5577Y5155D1*
X5588Y5127D1*
X5611Y5098D1*
X5646Y5084D1*
X5726D1*
X5125Y5559D2*
X5427D1*
Y5640D1*
X5412Y5674D1*
X5383Y5697D1*
X5355Y5709D1*
X5312Y5720D1*
X5240D1*
X5197Y5709D1*
X5168Y5697D1*
X5139Y5674D1*
X5125Y5640D1*
Y5559D1*
Y5839D2*
Y5965D1*
X5240Y5896D1*
Y5931D1*
X5254Y5954D1*
X5269Y5965D1*
X5312Y5977D1*
X5340D1*
X5383Y5965D1*
X5412Y5942D1*
X5427Y5908D1*
Y5873D1*
X5412Y5839D1*
X5398Y5828D1*
X5369Y5816D1*
X5276Y6073D2*
Y6206D1*
X5125Y6302D2*
X5427D1*
Y6382D1*
X5412Y6416D1*
X5383Y6439D1*
X5355Y6451D1*
X5312Y6462D1*
X5240D1*
X5197Y6451D1*
X5168Y6439D1*
X5139Y6416D1*
X5125Y6382D1*
Y6302D1*
Y6627D2*
X5140Y6593D1*
X5183Y6570D1*
X5254Y6558D1*
X5298D1*
X5369Y6570D1*
X5412Y6593D1*
X5427Y6627D1*
Y6650D1*
X5412Y6685D1*
X5369Y6707D1*
X5298Y6719D1*
X5254D1*
X5183Y6707D1*
X5140Y6685D1*
X5125Y6650D1*
Y6627D1*
X5183Y6707D2*
X5369Y6570D1*
X5125Y11355D2*
X5426D1*
Y11435D1*
X5411Y11470D1*
X5383Y11493D1*
X5354Y11504D1*
X5311Y11516D1*
X5239D1*
X5196Y11504D1*
X5168Y11493D1*
X5139Y11470D1*
X5125Y11435D1*
Y11355D1*
X5182Y11612D2*
X5168Y11635D1*
X5125Y11669D1*
X5426D1*
X5125Y11788D2*
Y11914D1*
X5240Y11846D1*
Y11880D1*
X5254Y11903D1*
X5268Y11914D1*
X5311Y11926D1*
X5340D1*
X5383Y11914D1*
X5412Y11892D1*
X5426Y11857D1*
Y11823D1*
X5412Y11788D1*
X5397Y11777D1*
X5369Y11765D1*
X5126Y8354D2*
X5427D1*
Y8434D1*
X5413Y8469D1*
X5384Y8492D1*
X5355Y8503D1*
X5313Y8514D1*
X5241D1*
X5197Y8503D1*
X5169Y8492D1*
X5140Y8469D1*
X5126Y8434D1*
Y8354D1*
X5184Y8610D2*
X5169Y8633D1*
X5126Y8668D1*
X5427D1*
X5126Y8833D2*
X5140Y8798D1*
X5184Y8775D1*
X5255Y8764D1*
X5298D1*
X5370Y8775D1*
X5413Y8798D1*
X5427Y8833D1*
Y8856D1*
X5413Y8890D1*
X5370Y8913D1*
X5298Y8925D1*
X5255D1*
X5184Y8913D1*
X5140Y8890D1*
X5126Y8856D1*
Y8833D1*
X5184Y8913D2*
X5370Y8775D1*
X5124Y9436D2*
X5426D1*
Y9517D1*
X5411Y9551D1*
X5383Y9574D1*
X5354Y9585D1*
X5311Y9597D1*
X5239D1*
X5196Y9585D1*
X5167Y9574D1*
X5138Y9551D1*
X5124Y9517D1*
Y9436D1*
X5225Y9842D2*
X5268Y9831D1*
X5297Y9808D1*
X5311Y9773D1*
Y9762D1*
X5297Y9727D1*
X5268Y9705D1*
X5225Y9693D1*
X5210D1*
X5167Y9705D1*
X5139Y9727D1*
X5125Y9762D1*
Y9773D1*
X5139Y9808D1*
X5167Y9831D1*
X5225Y9842D1*
X5297D1*
X5368Y9831D1*
X5411Y9808D1*
X5426Y9773D1*
Y9750D1*
X5411Y9716D1*
X5383Y9705D1*
X5125Y10433D2*
X5427D1*
Y10513D1*
X5412Y10548D1*
X5383Y10571D1*
X5355Y10582D1*
X5312Y10594D1*
X5240D1*
X5197Y10582D1*
X5168Y10571D1*
X5139Y10548D1*
X5125Y10513D1*
Y10433D1*
Y10828D2*
Y10713D1*
X5254Y10701D1*
X5240Y10713D1*
X5226Y10747D1*
Y10782D1*
X5240Y10816D1*
X5269Y10839D1*
X5312Y10851D1*
X5340D1*
X5383Y10839D1*
X5412Y10816D1*
X5427Y10782D1*
Y10747D1*
X5412Y10713D1*
X5398Y10701D1*
X5369Y10690D1*
M02*
