G04 DipTrace 2.4.0.2*
%INcleduino_V1_finial_TopMask.gbr*%
%MOIN*%
%ADD11C,0.006*%
%ADD12C,0.001*%
%ADD35R,0.0828X0.0828*%
%ADD37R,0.0651X0.0592*%
%ADD39R,0.071X0.0631*%
%ADD41R,0.0237X0.0611*%
%ADD51R,0.0493X0.0336*%
%ADD53C,0.0749*%
%ADD55R,0.0671X0.048*%
%ADD57R,0.0474X0.0513*%
%ADD59R,0.0513X0.0474*%
%FSLAX44Y44*%
G04*
G70*
G90*
G75*
G01*
%LNTopMask*%
%LPD*%
G36*
X8131Y6427D2*
Y5953D1*
X7618D1*
Y6427D1*
X8131D1*
G37*
G36*
X7462D2*
Y5953D1*
X6949D1*
Y6427D1*
X7462D1*
G37*
D55*
X8140Y9114D3*
Y8366D3*
D57*
X6240Y6906D3*
Y7575D3*
X10040Y6955D3*
Y7625D3*
X9540Y6955D3*
Y7625D3*
X6740Y6906D3*
Y7575D3*
D55*
X7440Y9114D3*
Y8366D3*
D53*
X10640Y4641D3*
X9640D3*
X8640D3*
X7640D3*
X6640D3*
X5640D3*
X11640Y11641D3*
Y10641D3*
Y9641D3*
Y8641D3*
Y7641D3*
Y6641D3*
Y5641D3*
Y4641D3*
X4640Y4640D3*
Y5640D3*
Y6640D3*
Y7640D3*
Y8640D3*
Y9640D3*
Y10640D3*
Y11640D3*
D59*
X8405Y6190D3*
X9075D3*
D55*
X8840Y9115D3*
Y8367D3*
D57*
X6740Y8306D3*
Y8975D3*
X6240Y8305D3*
Y8975D3*
X10040Y8355D3*
Y9025D3*
X9540Y8355D3*
Y9025D3*
D51*
X7323Y7863D3*
X8957D3*
X7323Y7017D3*
X8957D3*
D41*
X8652Y10560D3*
X8396D3*
X8140D3*
X7884D3*
X7628D3*
D39*
X9400Y10649D3*
X6880D3*
D37*
X9488Y11613D3*
X6792D3*
D35*
X8612D3*
X7668D3*
X5840Y11480D2*
D12*
D3*
X5803Y11470D2*
X5860D1*
X5771Y11460D2*
X5871D1*
X5747Y11450D2*
X5881D1*
X5730Y11440D2*
X5885D1*
X6230D2*
X6240D1*
X5724Y11430D2*
X5800D1*
X5853D2*
X5883D1*
X5910D2*
X5940D1*
X6213D2*
X6254D1*
X5720Y11420D2*
X5760D1*
X5866D2*
X5880D1*
X5902D2*
X5950D1*
X6199D2*
X6265D1*
X5896Y11410D2*
X5960D1*
X6194D2*
X6274D1*
X5893Y11400D2*
X6277D1*
X5892Y11390D2*
X6279D1*
X5892Y11380D2*
X6279D1*
X5896Y11370D2*
X5958D1*
X6178D2*
X6279D1*
X5730Y11360D2*
X5750D1*
X5870D2*
X5880D1*
X5903D2*
X5955D1*
X6100D2*
X6170D1*
X6186D2*
X6274D1*
X5726Y11350D2*
X5786D1*
X5853D2*
X5883D1*
X5910D2*
X5950D1*
X6083D2*
X6177D1*
X6191D2*
X6258D1*
X5723Y11340D2*
X5823D1*
X5832D2*
X5885D1*
X6066D2*
X6188D1*
X6196D2*
X6232D1*
X5739Y11330D2*
X5882D1*
X6049D2*
X6200D1*
X5762Y11320D2*
X5873D1*
X6031D2*
X6210D1*
X5790Y11310D2*
X5862D1*
X6014D2*
X6198D1*
X5820Y11300D2*
X5850D1*
X5997D2*
X6184D1*
X5979Y11290D2*
X6168D1*
X5961Y11280D2*
X6151D1*
X5944Y11270D2*
X6134D1*
X5927Y11260D2*
X6117D1*
X5910Y11250D2*
X6100D1*
X5893Y11240D2*
X6083D1*
X5876Y11230D2*
X6066D1*
X5859Y11220D2*
X6049D1*
X5841Y11210D2*
X6031D1*
X5825Y11200D2*
X6014D1*
X5810Y11190D2*
X5997D1*
X5825Y11180D2*
X5979D1*
X5770Y11170D2*
X5810D1*
X5840D2*
X5961D1*
X5764Y11160D2*
X5944D1*
X5759Y11150D2*
X5832D1*
X5848D2*
X5926D1*
X5754Y11140D2*
X5835D1*
X5845D2*
X5906D1*
X5753Y11130D2*
X5850D1*
X5870D2*
X5884D1*
X5756Y11120D2*
X5865D1*
X5763Y11110D2*
X5882D1*
X5779Y11100D2*
X5899D1*
X5802Y11090D2*
X5916D1*
X5828Y11080D2*
X5934D1*
X5851Y11070D2*
X5952D1*
X5871Y11060D2*
X5970D1*
X5891Y11050D2*
X5989D1*
X5910Y11040D2*
X6006D1*
X5928Y11030D2*
X6023D1*
X5710Y11020D2*
X5760D1*
X5946D2*
X6042D1*
X5710Y11010D2*
X5760D1*
X5963D2*
X6060D1*
X5710Y11000D2*
X5760D1*
X5981D2*
X6079D1*
X5710Y10990D2*
X5760D1*
X5999D2*
X6096D1*
X5710Y10980D2*
X5760D1*
X6016D2*
X6113D1*
X5710Y10970D2*
X5790D1*
X6033D2*
X6131D1*
X5710Y10960D2*
X5790D1*
X6052D2*
X6151D1*
X5710Y10950D2*
X5790D1*
X6070D2*
X6176D1*
X5710Y10940D2*
X5790D1*
X6088D2*
X6206D1*
X5710Y10930D2*
X5790D1*
X6102D2*
X6235D1*
X5710Y10920D2*
X6100D1*
X6112D2*
X6256D1*
X5710Y10910D2*
X6120D1*
X6139D2*
X6271D1*
X5710Y10900D2*
X6133D1*
X6156D2*
X6276D1*
X5710Y10890D2*
X6145D1*
X6168D2*
X6278D1*
X5710Y10880D2*
X6154D1*
X6176D2*
X6279D1*
X5710Y10870D2*
X6161D1*
X6182D2*
X6279D1*
X5710Y10860D2*
X6166D1*
X6189D2*
X6274D1*
X5710Y10850D2*
X6170D1*
X6198D2*
X6265D1*
X5710Y10840D2*
X5790D1*
X6213D2*
X6254D1*
X5710Y10830D2*
X5790D1*
X6230D2*
X6240D1*
X5710Y10820D2*
X5790D1*
X5710Y10810D2*
X5790D1*
X5710Y10800D2*
X5790D1*
X5710Y10790D2*
X5760D1*
X5710Y10780D2*
X5760D1*
X5710Y10770D2*
X5760D1*
X5710Y10760D2*
X5760D1*
X5710Y10750D2*
X5760D1*
X5840Y11480D2*
X5803Y11470D1*
X5771Y11460D1*
X5747Y11450D1*
X5730Y11440D1*
X5724Y11430D1*
X5720Y11420D1*
X5860Y11470D2*
X5871Y11460D1*
X5881Y11450D1*
X5885Y11440D1*
X5883Y11430D1*
X5880Y11420D1*
X6230Y11440D2*
X6213Y11430D1*
X6199Y11420D1*
X6194Y11410D1*
X6190Y11400D1*
X6240Y11440D2*
X6254Y11430D1*
X6265Y11420D1*
X6274Y11410D1*
X6277Y11400D1*
X6279Y11390D1*
Y11380D1*
Y11370D1*
X6274Y11360D1*
X6258Y11350D1*
X6232Y11340D1*
X6200Y11330D1*
X6210Y11320D1*
X6198Y11310D1*
X6184Y11300D1*
X6168Y11290D1*
X6151Y11280D1*
X6134Y11270D1*
X6117Y11260D1*
X6100Y11250D1*
X6083Y11240D1*
X6066Y11230D1*
X6049Y11220D1*
X6031Y11210D1*
X6014Y11200D1*
X5997Y11190D1*
X5979Y11180D1*
X5961Y11170D1*
X5944Y11160D1*
X5926Y11150D1*
X5906Y11140D1*
X5884Y11130D1*
X5860Y11120D1*
X5880Y11110D1*
X5898Y11100D1*
X5916Y11090D1*
X5933Y11080D1*
X5952Y11070D1*
X5970Y11060D1*
X5989Y11050D1*
X6006Y11040D1*
X6023Y11030D1*
X6042Y11020D1*
X6060Y11010D1*
X6079Y11000D1*
X6096Y10990D1*
X6113Y10980D1*
X6131Y10970D1*
X6151Y10960D1*
X6176Y10950D1*
X6206Y10940D1*
X6235Y10930D1*
X6256Y10920D1*
X6271Y10910D1*
X6276Y10900D1*
X6278Y10890D1*
X6279Y10880D1*
Y10870D1*
X6274Y10860D1*
X6265Y10850D1*
X6254Y10840D1*
X6240Y10830D1*
X5840Y11440D2*
X5800Y11430D1*
X5760Y11420D1*
X5840Y11440D2*
X5853Y11430D1*
X5866Y11420D1*
X5877Y11410D1*
X5885Y11400D1*
X5888Y11390D1*
X5891Y11380D1*
X5896Y11370D1*
X5902Y11360D1*
X5910Y11350D1*
Y11430D2*
X5902Y11420D1*
X5896Y11410D1*
X5893Y11400D1*
X5892Y11390D1*
Y11380D1*
X5896Y11370D1*
X5903Y11360D1*
X5910Y11350D1*
X5940Y11430D2*
X5950Y11420D1*
X5960Y11410D1*
X5970Y11400D1*
X5960Y11380D2*
X5958Y11370D1*
X5955Y11360D1*
X5950Y11350D1*
X6170Y11380D2*
X6178Y11370D1*
X6186Y11360D1*
X6191Y11350D1*
X6196Y11340D1*
X6200Y11330D1*
X5730Y11360D2*
X5726Y11350D1*
X5723Y11340D1*
X5739Y11330D1*
X5762Y11320D1*
X5790Y11310D1*
X5820Y11300D1*
X5750Y11360D2*
X5786Y11350D1*
X5823Y11340D1*
X5860Y11330D1*
X5870Y11360D2*
X5853Y11350D1*
X5832Y11340D1*
X5810Y11330D1*
X5880Y11360D2*
X5883Y11350D1*
X5885Y11340D1*
X5882Y11330D1*
X5873Y11320D1*
X5862Y11310D1*
X5850Y11300D1*
X6100Y11360D2*
X6083Y11350D1*
X6066Y11340D1*
X6049Y11330D1*
X6031Y11320D1*
X6014Y11310D1*
X5997Y11300D1*
X5979Y11290D1*
X5961Y11280D1*
X5944Y11270D1*
X5927Y11260D1*
X5910Y11250D1*
X5893Y11240D1*
X5876Y11230D1*
X5859Y11220D1*
X5841Y11210D1*
X5825Y11200D1*
X5810Y11190D1*
X5825Y11180D1*
X5840Y11170D1*
X5830Y11160D1*
X6170Y11360D2*
X6177Y11350D1*
X6188Y11340D1*
X6200Y11330D1*
X5770Y11170D2*
X5764Y11160D1*
X5759Y11150D1*
X5754Y11140D1*
X5753Y11130D1*
X5756Y11120D1*
X5763Y11110D1*
X5779Y11100D1*
X5802Y11090D1*
X5828Y11080D1*
X5851Y11070D1*
X5871Y11060D1*
X5891Y11050D1*
X5910Y11040D1*
X5928Y11030D1*
X5946Y11020D1*
X5963Y11010D1*
X5981Y11000D1*
X5999Y10990D1*
X6016Y10980D1*
X6033Y10970D1*
X6052Y10960D1*
X6070Y10950D1*
X6088Y10940D1*
X6102Y10930D1*
X6112Y10920D1*
X6120Y10910D1*
X5810Y11170D2*
X5830Y11160D2*
X5832Y11150D1*
X5835Y11140D1*
X5840Y11130D1*
X5850Y11160D2*
X5848Y11150D1*
X5845Y11140D1*
X5840Y11130D1*
X5850D2*
X5865Y11120D1*
X5882Y11110D1*
X5899Y11100D1*
X5916Y11090D1*
X5934Y11080D1*
X5952Y11070D1*
X5970Y11060D1*
X5989Y11050D1*
X6006Y11040D1*
X6023Y11030D1*
X6042Y11020D1*
X6060Y11010D1*
X6079Y11000D1*
X6096Y10990D1*
X6113Y10980D1*
X6131Y10970D1*
X6151Y10960D1*
X6176Y10950D1*
X6206Y10940D1*
X6235Y10930D1*
X6256Y10920D1*
X6271Y10910D1*
X6276Y10900D1*
X6278Y10890D1*
X6279Y10880D1*
Y10870D1*
X6274Y10860D1*
X6265Y10850D1*
X6254Y10840D1*
X6240Y10830D1*
X5860Y11140D2*
X5870Y11130D1*
X5710Y11020D2*
Y11010D1*
Y11000D1*
Y10990D1*
Y10980D1*
Y10970D1*
Y10960D1*
Y10950D1*
Y10940D1*
Y10930D1*
Y10920D1*
Y10910D1*
Y10900D1*
Y10890D1*
Y10880D1*
Y10870D1*
Y10860D1*
Y10850D1*
Y10840D1*
Y10830D1*
Y10820D1*
Y10810D1*
Y10800D1*
Y10790D1*
Y10780D1*
Y10770D1*
Y10760D1*
Y10750D1*
X5760Y11020D2*
Y11010D1*
Y11000D1*
Y10990D1*
Y10980D1*
Y10970D1*
X5790D1*
Y10960D1*
Y10950D1*
Y10940D1*
Y10930D1*
Y10920D1*
X6100D2*
X6110Y10910D1*
X6120D2*
X6133Y10900D1*
X6145Y10890D1*
X6154Y10880D1*
X6161Y10870D1*
X6166Y10860D1*
X6170Y10850D1*
X6120Y10920D2*
X6139Y10910D1*
X6156Y10900D1*
X6168Y10890D1*
X6176Y10880D1*
X6182Y10870D1*
X6189Y10860D1*
X6198Y10850D1*
X6213Y10840D1*
X6230Y10830D1*
X5790Y10850D2*
Y10840D1*
Y10830D1*
Y10820D1*
Y10810D1*
Y10800D1*
Y10790D1*
X5760D1*
Y10780D1*
Y10770D1*
Y10760D1*
Y10750D1*
X10425Y11727D2*
D11*
X10453Y11739D1*
X10482Y11762D1*
X10497Y11785D1*
Y11831D1*
X10482Y11854D1*
X10453Y11877D1*
X10425Y11888D1*
X10382Y11900D1*
X10310D1*
X10267Y11888D1*
X10238Y11877D1*
X10210Y11854D1*
X10195Y11831D1*
Y11785D1*
X10210Y11762D1*
X10238Y11739D1*
X10267Y11727D1*
X10497Y11631D2*
X10195D1*
X10310Y11535D2*
Y11398D1*
X10339D1*
X10368Y11409D1*
X10382Y11421D1*
X10396Y11444D1*
Y11478D1*
X10382Y11501D1*
X10353Y11524D1*
X10310Y11535D1*
X10281D1*
X10238Y11524D1*
X10210Y11501D1*
X10195Y11478D1*
Y11444D1*
X10210Y11421D1*
X10238Y11398D1*
X10497Y11164D2*
X10195D1*
X10353D2*
X10382Y11187D1*
X10396Y11210D1*
Y11244D1*
X10382Y11267D1*
X10353Y11290D1*
X10310Y11302D1*
X10281D1*
X10238Y11290D1*
X10210Y11267D1*
X10195Y11244D1*
Y11210D1*
X10210Y11187D1*
X10238Y11164D1*
X10396Y11068D2*
X10252D1*
X10210Y11057D1*
X10195Y11034D1*
Y10999D1*
X10210Y10976D1*
X10252Y10942D1*
X10396D2*
X10195D1*
X10497Y10846D2*
X10482Y10834D1*
X10497Y10823D1*
X10511Y10834D1*
X10497Y10846D1*
X10396Y10834D2*
X10195D1*
X10396Y10727D2*
X10195D1*
X10339D2*
X10382Y10692D1*
X10396Y10669D1*
Y10635D1*
X10382Y10612D1*
X10339Y10600D1*
X10195D1*
X10396Y10447D2*
X10382Y10470D1*
X10353Y10493D1*
X10310Y10504D1*
X10281D1*
X10238Y10493D1*
X10210Y10470D1*
X10195Y10447D1*
Y10413D1*
X10210Y10390D1*
X10238Y10367D1*
X10281Y10355D1*
X10310D1*
X10353Y10367D1*
X10382Y10390D1*
X10396Y10413D1*
Y10447D1*
M02*
