M48
INCH
T01C0.01
T02C0.0433
%
T01
X+008140Y+007840
X+007340Y+006690
X+007690Y+005690
X+008290Y+005790
X+008840Y+005590
X+009190Y+005590
X+009140Y+004840
X+010390Y+006440
X+010390Y+008990
X+009640Y+009940
X+008890Y+009590
X+008140Y+011041
X+009690Y+011140
X+006290Y+011940
X+005240Y+011040
X+005590Y+009890
X+005940Y+009890
X+006290Y+009940
X+005890Y+008990
X+005890Y+008640
X+006540Y+005540
X+006140Y+004490
T02
X+010640Y+004641
X+009640Y+004641
X+008640Y+004641
X+007640Y+004641
X+006640Y+004641
X+005640Y+004641
X+004640Y+004640
X+004640Y+005640
X+004640Y+006640
X+004640Y+007640
X+004640Y+008640
X+004640Y+009640
X+004640Y+010640
X+004640Y+011640
X+011640Y+011641
X+011640Y+010641
X+011640Y+009641
X+011640Y+008641
X+011640Y+007641
X+011640Y+006641
X+011640Y+005641
X+011640Y+004641
T00
M30
